<svg width="1000" height="300" viewBox="0 0 1000 300" fill="none" xmlns="http://www.w3.org/2000/svg">
<circle cx="98.5" cy="150.5" r="72.5" fill="#7E56C2"/>
<path d="M109.424 167.555L99.5106 151.202L89.6123 167.555C88.6255 169.197 85.5882 172.127 81.1787 170.869L60.0408 164.855V177.435C60.0408 179.69 61.5826 181.654 63.772 182.191L97.1054 190.49C98.678 190.874 100.328 190.874 101.885 190.49L135.249 182.191C137.438 181.638 138.98 179.675 138.98 177.435V164.855L117.858 170.854C113.464 172.112 110.426 169.212 109.424 167.555ZM80.1149 134.281C79.9145 133.499 79.7757 132.701 79.7757 131.872C79.7757 126.457 84.2006 122.054 89.6431 122.054C95.0856 122.054 99.5106 126.457 99.5106 131.872C99.5106 133.591 99.0326 135.171 98.2463 136.582L99.5106 136.736L123.454 133.713L128.959 118.633C129.421 117.36 128.758 115.949 127.479 115.488L118.922 112.389C117.642 111.929 116.224 112.589 115.761 113.862L109.332 131.412C109.07 120.781 100.389 112.236 89.6431 112.236C78.7427 112.236 69.9083 121.026 69.9083 131.872C69.9083 132.256 70.0008 132.624 70.0162 133.008L80.1149 134.281ZM58.3757 138.162L50.4355 153.933C49.7263 155.344 50.4818 157.032 51.9927 157.461L82.5047 166.129C83.5993 166.436 84.7711 165.975 85.357 165.009L99.5106 141.691L60.9351 136.797C59.8712 136.674 58.8537 137.211 58.3757 138.162ZM148.586 153.933L140.645 138.162C140.167 137.211 139.134 136.659 138.071 136.797L99.5106 141.691L113.649 165.024C114.235 165.991 115.406 166.451 116.501 166.144L147.013 157.476C148.539 157.032 149.279 155.344 148.586 153.933Z" fill="white"/>
<path d="M234.93 210.96C232.69 210.96 230.237 210.907 227.57 210.8C225.01 210.693 222.397 210.533 219.73 210.32C217.17 210.107 214.61 209.84 212.05 209.52C209.49 209.2 207.143 208.773 205.01 208.24V100.72C207.143 100.187 209.49 99.76 212.05 99.44C214.61 99.12 217.17 98.8533 219.73 98.64C222.397 98.4267 225.01 98.2667 227.57 98.16C230.13 98.0533 232.53 98 234.77 98C241.17 98 247.143 98.48 252.69 99.44C258.343 100.4 263.197 102.053 267.25 104.4C271.41 106.64 274.663 109.627 277.01 113.36C279.357 117.093 280.53 121.68 280.53 127.12C280.53 133.2 279.09 138.213 276.21 142.16C273.33 146 269.49 148.88 264.69 150.8C271.197 152.72 276.37 155.76 280.21 159.92C284.05 164.08 285.97 169.947 285.97 177.52C285.97 188.613 281.863 196.987 273.65 202.64C265.543 208.187 252.637 210.96 234.93 210.96ZM220.37 158.32V197.36C221.543 197.467 222.93 197.573 224.53 197.68C225.917 197.787 227.517 197.893 229.33 198C231.25 198 233.437 198 235.89 198C240.477 198 244.797 197.733 248.85 197.2C253.01 196.56 256.637 195.493 259.73 194C262.823 192.507 265.277 190.427 267.09 187.76C269.01 185.093 269.97 181.733 269.97 177.68C269.97 174.053 269.277 171.013 267.89 168.56C266.503 166 264.477 163.973 261.81 162.48C259.25 160.987 256.157 159.92 252.53 159.28C248.903 158.64 244.85 158.32 240.37 158.32H220.37ZM220.37 145.84H236.69C240.53 145.84 244.157 145.573 247.57 145.04C250.983 144.507 253.917 143.547 256.37 142.16C258.93 140.773 260.903 138.96 262.29 136.72C263.783 134.48 264.53 131.653 264.53 128.24C264.53 125.04 263.783 122.373 262.29 120.24C260.797 118 258.717 116.24 256.05 114.96C253.49 113.573 250.45 112.56 246.93 111.92C243.41 111.28 239.677 110.96 235.73 110.96C231.783 110.96 228.69 111.013 226.45 111.12C224.21 111.227 222.183 111.387 220.37 111.6V145.84ZM380.303 168.4C380.303 175.013 379.343 180.987 377.423 186.32C375.503 191.653 372.783 196.24 369.263 200.08C365.849 203.92 361.743 206.907 356.943 209.04C352.143 211.067 346.916 212.08 341.263 212.08C335.609 212.08 330.383 211.067 325.583 209.04C320.783 206.907 316.623 203.92 313.103 200.08C309.689 196.24 307.023 191.653 305.103 186.32C303.183 180.987 302.223 175.013 302.223 168.4C302.223 161.893 303.183 155.973 305.103 150.64C307.023 145.2 309.689 140.56 313.103 136.72C316.623 132.88 320.783 129.947 325.583 127.92C330.383 125.787 335.609 124.72 341.263 124.72C346.916 124.72 352.143 125.787 356.943 127.92C361.743 129.947 365.849 132.88 369.263 136.72C372.783 140.56 375.503 145.2 377.423 150.64C379.343 155.973 380.303 161.893 380.303 168.4ZM364.783 168.4C364.783 159.013 362.649 151.6 358.383 146.16C354.223 140.613 348.516 137.84 341.263 137.84C334.009 137.84 328.249 140.613 323.983 146.16C319.823 151.6 317.743 159.013 317.743 168.4C317.743 177.787 319.823 185.253 323.983 190.8C328.249 196.24 334.009 198.96 341.263 198.96C348.516 198.96 354.223 196.24 358.383 190.8C362.649 185.253 364.783 177.787 364.783 168.4ZM429.398 199.28C432.918 199.28 436.011 199.227 438.678 199.12C441.451 198.907 443.744 198.587 445.558 198.16V173.36C444.491 172.827 442.731 172.4 440.278 172.08C437.931 171.653 435.051 171.44 431.638 171.44C429.398 171.44 426.998 171.6 424.438 171.92C421.984 172.24 419.691 172.933 417.558 174C415.531 174.96 413.824 176.347 412.438 178.16C411.051 179.867 410.358 182.16 410.358 185.04C410.358 190.373 412.064 194.107 415.478 196.24C418.891 198.267 423.531 199.28 429.398 199.28ZM428.118 124.72C434.091 124.72 439.104 125.52 443.158 127.12C447.318 128.613 450.624 130.8 453.078 133.68C455.638 136.453 457.451 139.813 458.518 143.76C459.584 147.6 460.118 151.867 460.118 156.56V208.56C458.838 208.773 457.024 209.093 454.678 209.52C452.438 209.84 449.878 210.16 446.998 210.48C444.118 210.8 440.971 211.067 437.558 211.28C434.251 211.6 430.944 211.76 427.638 211.76C422.944 211.76 418.624 211.28 414.678 210.32C410.731 209.36 407.318 207.867 404.438 205.84C401.558 203.707 399.318 200.933 397.718 197.52C396.118 194.107 395.318 190 395.318 185.2C395.318 180.613 396.224 176.667 398.038 173.36C399.958 170.053 402.518 167.387 405.718 165.36C408.918 163.333 412.651 161.84 416.918 160.88C421.184 159.92 425.664 159.44 430.358 159.44C431.851 159.44 433.398 159.547 434.998 159.76C436.598 159.867 438.091 160.08 439.478 160.4C440.971 160.613 442.251 160.827 443.318 161.04C444.384 161.253 445.131 161.413 445.558 161.52V157.36C445.558 154.907 445.291 152.507 444.758 150.16C444.224 147.707 443.264 145.573 441.878 143.76C440.491 141.84 438.571 140.347 436.118 139.28C433.771 138.107 430.678 137.52 426.838 137.52C421.931 137.52 417.611 137.893 413.878 138.64C410.251 139.28 407.531 139.973 405.718 140.72L403.958 128.4C405.878 127.547 409.078 126.747 413.558 126C418.038 125.147 422.891 124.72 428.118 124.72ZM515.551 125.04C516.831 125.04 518.271 125.147 519.871 125.36C521.578 125.467 523.231 125.68 524.831 126C526.431 126.213 527.871 126.48 529.151 126.8C530.538 127.013 531.551 127.227 532.191 127.44L529.631 140.4C528.458 139.973 526.485 139.493 523.711 138.96C521.045 138.32 517.578 138 513.311 138C510.538 138 507.765 138.32 504.991 138.96C502.325 139.493 500.565 139.867 499.711 140.08V210H484.831V130.32C488.351 129.04 492.725 127.867 497.951 126.8C503.178 125.627 509.045 125.04 515.551 125.04ZM600.31 144.4C598.497 142.907 595.883 141.467 592.47 140.08C589.057 138.693 585.323 138 581.27 138C577.003 138 573.323 138.8 570.23 140.4C567.243 141.893 564.79 144.027 562.87 146.8C560.95 149.467 559.563 152.667 558.71 156.4C557.857 160.133 557.43 164.133 557.43 168.4C557.43 178.107 559.83 185.627 564.63 190.96C569.43 196.187 575.83 198.8 583.83 198.8C587.883 198.8 591.243 198.64 593.91 198.32C596.683 197.893 598.817 197.467 600.31 197.04V144.4ZM600.31 88.4L615.19 85.84V207.6C611.777 208.56 607.403 209.52 602.07 210.48C596.737 211.44 590.603 211.92 583.67 211.92C577.27 211.92 571.51 210.907 566.39 208.88C561.27 206.853 556.897 203.973 553.27 200.24C549.643 196.507 546.817 191.973 544.79 186.64C542.87 181.2 541.91 175.12 541.91 168.4C541.91 162 542.71 156.133 544.31 150.8C546.017 145.467 548.47 140.88 551.67 137.04C554.87 133.2 558.763 130.213 563.35 128.08C568.043 125.947 573.377 124.88 579.35 124.88C584.15 124.88 588.363 125.52 591.99 126.8C595.723 128.08 598.497 129.307 600.31 130.48V88.4ZM698.529 168.56C698.529 158.853 696.129 151.387 691.329 146.16C686.529 140.933 680.129 138.32 672.129 138.32C667.649 138.32 664.129 138.48 661.569 138.8C659.115 139.12 657.142 139.493 655.649 139.92V192.4C657.462 193.893 660.075 195.333 663.489 196.72C666.902 198.107 670.635 198.8 674.689 198.8C678.955 198.8 682.582 198.053 685.569 196.56C688.662 194.96 691.169 192.827 693.089 190.16C695.009 187.387 696.395 184.187 697.249 180.56C698.102 176.827 698.529 172.827 698.529 168.56ZM714.049 168.56C714.049 174.853 713.195 180.667 711.489 186C709.889 191.333 707.489 195.92 704.289 199.76C701.089 203.6 697.142 206.587 692.449 208.72C687.862 210.853 682.582 211.92 676.609 211.92C671.809 211.92 667.542 211.28 663.809 210C660.182 208.72 657.462 207.493 655.649 206.32V239.6H640.769V129.36C644.289 128.507 648.662 127.6 653.889 126.64C659.222 125.573 665.355 125.04 672.289 125.04C678.689 125.04 684.449 126.053 689.569 128.08C694.689 130.107 699.062 132.987 702.689 136.72C706.315 140.453 709.089 145.04 711.009 150.48C713.035 155.813 714.049 161.84 714.049 168.56ZM763.148 199.28C766.668 199.28 769.761 199.227 772.428 199.12C775.201 198.907 777.494 198.587 779.308 198.16V173.36C778.241 172.827 776.481 172.4 774.028 172.08C771.681 171.653 768.801 171.44 765.388 171.44C763.148 171.44 760.748 171.6 758.188 171.92C755.734 172.24 753.441 172.933 751.308 174C749.281 174.96 747.574 176.347 746.188 178.16C744.801 179.867 744.108 182.16 744.108 185.04C744.108 190.373 745.814 194.107 749.228 196.24C752.641 198.267 757.281 199.28 763.148 199.28ZM761.868 124.72C767.841 124.72 772.854 125.52 776.908 127.12C781.068 128.613 784.374 130.8 786.828 133.68C789.388 136.453 791.201 139.813 792.268 143.76C793.334 147.6 793.868 151.867 793.868 156.56V208.56C792.588 208.773 790.774 209.093 788.428 209.52C786.188 209.84 783.628 210.16 780.748 210.48C777.868 210.8 774.721 211.067 771.308 211.28C768.001 211.6 764.694 211.76 761.388 211.76C756.694 211.76 752.374 211.28 748.428 210.32C744.481 209.36 741.068 207.867 738.188 205.84C735.308 203.707 733.068 200.933 731.468 197.52C729.868 194.107 729.068 190 729.068 185.2C729.068 180.613 729.974 176.667 731.788 173.36C733.708 170.053 736.268 167.387 739.468 165.36C742.668 163.333 746.401 161.84 750.668 160.88C754.934 159.92 759.414 159.44 764.108 159.44C765.601 159.44 767.148 159.547 768.748 159.76C770.348 159.867 771.841 160.08 773.228 160.4C774.721 160.613 776.001 160.827 777.068 161.04C778.134 161.253 778.881 161.413 779.308 161.52V157.36C779.308 154.907 779.041 152.507 778.508 150.16C777.974 147.707 777.014 145.573 775.628 143.76C774.241 141.84 772.321 140.347 769.868 139.28C767.521 138.107 764.428 137.52 760.588 137.52C755.681 137.52 751.361 137.893 747.628 138.64C744.001 139.28 741.281 139.973 739.468 140.72L737.708 128.4C739.628 127.547 742.828 126.747 747.308 126C751.788 125.147 756.641 124.72 761.868 124.72ZM854.741 211.92C848.021 211.92 842.101 210.853 836.981 208.72C831.968 206.587 827.701 203.6 824.181 199.76C820.768 195.92 818.208 191.387 816.501 186.16C814.795 180.827 813.941 174.96 813.941 168.56C813.941 162.16 814.848 156.293 816.661 150.96C818.581 145.627 821.248 141.04 824.661 137.2C828.075 133.253 832.235 130.213 837.141 128.08C842.155 125.84 847.701 124.72 853.781 124.72C857.515 124.72 861.248 125.04 864.981 125.68C868.715 126.32 872.288 127.333 875.701 128.72L872.341 141.36C870.101 140.293 867.488 139.44 864.501 138.8C861.621 138.16 858.528 137.84 855.221 137.84C846.901 137.84 840.501 140.453 836.021 145.68C831.648 150.907 829.461 158.533 829.461 168.56C829.461 173.04 829.941 177.147 830.901 180.88C831.968 184.613 833.568 187.813 835.701 190.48C837.941 193.147 840.768 195.227 844.181 196.72C847.595 198.107 851.755 198.8 856.661 198.8C860.608 198.8 864.181 198.427 867.381 197.68C870.581 196.933 873.088 196.133 874.901 195.28L876.981 207.76C876.128 208.293 874.901 208.827 873.301 209.36C871.701 209.787 869.888 210.16 867.861 210.48C865.835 210.907 863.648 211.227 861.301 211.44C859.061 211.76 856.875 211.92 854.741 211.92ZM923.036 164.24C926.236 166.693 929.596 169.733 933.116 173.36C936.743 176.987 940.263 180.933 943.676 185.2C947.196 189.36 950.503 193.627 953.596 198C956.69 202.267 959.303 206.267 961.436 210H943.996C941.756 206.267 939.143 202.48 936.156 198.64C933.276 194.693 930.236 190.96 927.036 187.44C923.836 183.813 920.583 180.507 917.276 177.52C913.97 174.533 910.823 172.027 907.836 170V210H892.956V88.4L907.836 85.84V161.68C910.396 159.12 913.223 156.293 916.316 153.2C919.41 150.107 922.45 146.96 925.436 143.76C928.423 140.56 931.25 137.52 933.916 134.64C936.583 131.653 938.876 129.04 940.796 126.8H958.236C955.783 129.467 953.116 132.4 950.236 135.6C947.356 138.8 944.37 142.053 941.276 145.36C938.183 148.56 935.036 151.813 931.836 155.12C928.743 158.32 925.81 161.36 923.036 164.24Z" fill="#7E56C2"/>
</svg>
